<?xml version="1.0" encoding="UTF-8" standalone="no"?>
<!-- Created with Inkscape (http://www.inkscape.org/) -->

<svg
   xmlns:dc="http://purl.org/dc/elements/1.1/"
   xmlns:cc="http://creativecommons.org/ns#"
   xmlns:rdf="http://www.w3.org/1999/02/22-rdf-syntax-ns#"
   xmlns:svg="http://www.w3.org/2000/svg"
   xmlns="http://www.w3.org/2000/svg"
   xmlns:xlink="http://www.w3.org/1999/xlink"
   xmlns:sodipodi="http://sodipodi.sourceforge.net/DTD/sodipodi-0.dtd"
   xmlns:inkscape="http://www.inkscape.org/namespaces/inkscape"
   width="264.58334mm"
   height="265.65585mm"
   viewBox="0 0 264.58334 265.65585"
   version="1.1"
   id="svg2236"
   inkscape:version="0.92.2 (5c3e80d, 2017-08-06)"
   sodipodi:docname="Volkswagen logo 2000.svg">
  <defs
     id="defs2230">
    <linearGradient
       inkscape:collect="always"
       id="linearGradient2528">
      <stop
         style="stop-color:#e3e3e3;stop-opacity:1"
         offset="0"
         id="stop2524" />
      <stop
         style="stop-color:#acb3b5;stop-opacity:1"
         offset="1"
         id="stop2526" />
    </linearGradient>
    <linearGradient
       inkscape:collect="always"
       id="linearGradient2476">
      <stop
         style="stop-color:#a0c3e9;stop-opacity:1"
         offset="0"
         id="stop2472" />
      <stop
         id="stop2484"
         offset="0.15209353"
         style="stop-color:#7caedd;stop-opacity:1" />
      <stop
         id="stop2482"
         offset="0.62893242"
         style="stop-color:#1465ab;stop-opacity:1" />
      <stop
         style="stop-color:#05366b;stop-opacity:1"
         offset="1"
         id="stop2474" />
    </linearGradient>
    <linearGradient
       inkscape:collect="always"
       id="linearGradient2452">
      <stop
         style="stop-color:#e5e5e5;stop-opacity:1"
         offset="0"
         id="stop2448" />
      <stop
         style="stop-color:#83878a;stop-opacity:1"
         offset="1"
         id="stop2450" />
    </linearGradient>
    <linearGradient
       inkscape:collect="always"
       id="linearGradient2444">
      <stop
         style="stop-color:#ffffff;stop-opacity:1"
         offset="0"
         id="stop2440" />
      <stop
         style="stop-color:#83868c;stop-opacity:1"
         offset="1"
         id="stop2442" />
    </linearGradient>
    <linearGradient
       id="linearGradient2438"
       inkscape:collect="always">
      <stop
         id="stop2432"
         offset="0"
         style="stop-color:#a4a4a4;stop-opacity:1" />
      <stop
         id="stop2436"
         offset="1"
         style="stop-color:#ffffff;stop-opacity:1" />
    </linearGradient>
    <linearGradient
       inkscape:collect="always"
       id="linearGradient2316">
      <stop
         style="stop-color:#ffffff;stop-opacity:1"
         offset="0"
         id="stop2312" />
      <stop
         id="stop2320"
         offset="0.50144601"
         style="stop-color:#ffffff;stop-opacity:1" />
      <stop
         style="stop-color:#ababab;stop-opacity:1"
         offset="1"
         id="stop2314" />
    </linearGradient>
    <radialGradient
       inkscape:collect="always"
       xlink:href="#linearGradient2316"
       id="radialGradient2318"
       cx="50.101654"
       cy="316.01868"
       fx="50.101654"
       fy="316.01868"
       r="734.27734"
       gradientTransform="matrix(-1.5884437,5.645358e-6,0,-1.4608268,221.86648,748.00547)"
       gradientUnits="userSpaceOnUse" />
    <linearGradient
       inkscape:collect="always"
       xlink:href="#linearGradient2438"
       id="linearGradient2430"
       x1="703.57141"
       y1="31.805367"
       x2="703.57141"
       y2="204.66251"
       gradientUnits="userSpaceOnUse" />
    <linearGradient
       inkscape:collect="always"
       xlink:href="#linearGradient2444"
       id="linearGradient2446"
       x1="1.4285715"
       y1="1101.0911"
       x2="1.4285715"
       y2="581.09106"
       gradientUnits="userSpaceOnUse" />
    <linearGradient
       inkscape:collect="always"
       xlink:href="#linearGradient2452"
       id="linearGradient2454"
       x1="-108.68945"
       y1="452.74023"
       x2="176.73438"
       y2="452.74023"
       gradientUnits="userSpaceOnUse" />
    <radialGradient
       inkscape:collect="always"
       xlink:href="#linearGradient2476"
       id="radialGradient2480"
       cx="36.821289"
       cy="96.231194"
       fx="36.821289"
       fy="96.231194"
       r="226.26503"
       gradientTransform="matrix(4.9954355e-6,1.3458414,-1.4612516,0,157.72305,24.00706)"
       gradientUnits="userSpaceOnUse" />
    <linearGradient
       inkscape:collect="always"
       xlink:href="#linearGradient2528"
       id="linearGradient2530"
       x1="-115.66071"
       y1="159.41666"
       x2="333.375"
       y2="159.41666"
       gradientUnits="userSpaceOnUse"
       gradientTransform="matrix(1.0086357,0,0,1.0086357,-0.92046958,-1.2950672)" />
    <filter
       inkscape:collect="always"
       style="color-interpolation-filters:sRGB"
       id="filter2628"
       x="-0.028856095"
       width="1.0577122"
       y="-0.028744124"
       height="1.0574882">
      <feGaussianBlur
         inkscape:collect="always"
         stdDeviation="4.6717426"
         id="feGaussianBlur2630" />
    </filter>
    <radialGradient
       inkscape:collect="always"
       xlink:href="#linearGradient2476"
       id="radialGradient2687"
       gradientUnits="userSpaceOnUse"
       gradientTransform="matrix(4.9954355e-6,1.3458414,-1.4612516,0,157.72305,24.00706)"
       cx="36.821289"
       cy="96.231194"
       fx="36.821289"
       fy="96.231194"
       r="226.26503" />
    <radialGradient
       inkscape:collect="always"
       xlink:href="#linearGradient2316"
       id="radialGradient2689"
       gradientUnits="userSpaceOnUse"
       gradientTransform="matrix(-1.5884437,5.645358e-6,0,-1.4608268,221.86648,748.00547)"
       cx="50.101654"
       cy="316.01868"
       fx="50.101654"
       fy="316.01868"
       r="734.27734" />
  </defs>
  <sodipodi:namedview
     id="base"
     pagecolor="#ffffff"
     bordercolor="#666666"
     borderopacity="1.0"
     inkscape:pageopacity="0.0"
     inkscape:pageshadow="2"
     inkscape:zoom="0.49497475"
     inkscape:cx="571.99004"
     inkscape:cy="508.26946"
     inkscape:document-units="mm"
     inkscape:current-layer="layer1"
     showgrid="false"
     showguides="true"
     inkscape:guide-bbox="true"
     fit-margin-top="0"
     fit-margin-left="0"
     fit-margin-right="0"
     fit-margin-bottom="0"
     inkscape:window-width="1366"
     inkscape:window-height="705"
     inkscape:window-x="-8"
     inkscape:window-y="-8"
     inkscape:window-maximized="1" />
  <metadata
     id="metadata2233">
    <rdf:RDF>
      <cc:Work
         rdf:about="">
        <dc:format>image/svg+xml</dc:format>
        <dc:type
           rdf:resource="http://purl.org/dc/dcmitype/StillImage" />
        <dc:title></dc:title>
      </cc:Work>
    </rdf:RDF>
  </metadata>
  <g
     inkscape:label="Layer 1"
     inkscape:groupmode="layer"
     id="layer1"
     transform="translate(-55.555985,-38.919908)">
    <g
       id="g2685"
       transform="matrix(0.56504527,0,0,0.56504527,127.61985,87.009549)"
       style="stroke-width:1.76976967">
      <ellipse
         ry="235.07484"
         rx="234.12573"
         cy="149.96725"
         cx="106.58929"
         id="ellipse2520"
         style="opacity:1;fill:url(#linearGradient2530);fill-opacity:1;stroke:none;stroke-width:49.49160385;stroke-linecap:round;stroke-linejoin:miter;stroke-miterlimit:4;stroke-dasharray:none;stroke-opacity:1" />
      <ellipse
         style="opacity:1;fill:url(#radialGradient2687);fill-opacity:1;stroke:none;stroke-width:49.49160767;stroke-linecap:round;stroke-linejoin:miter;stroke-miterlimit:4;stroke-dasharray:none;stroke-opacity:1"
         id="ellipse2458"
         cx="106.58929"
         cy="149.96725"
         rx="226.26503"
         ry="227.18228" />
      <path
         transform="matrix(0.99881372,0,0,0.99881792,-2.8539233,-0.9112709)"
         inkscape:connector-curvature="0"
         style="color:#000000;font-style:normal;font-variant:normal;font-weight:normal;font-stretch:normal;font-size:medium;line-height:normal;font-family:sans-serif;font-variant-ligatures:normal;font-variant-position:normal;font-variant-caps:normal;font-variant-numeric:normal;font-variant-alternates:normal;font-feature-settings:normal;text-indent:0;text-align:start;text-decoration:none;text-decoration-line:none;text-decoration-style:solid;text-decoration-color:#000000;letter-spacing:normal;word-spacing:normal;text-transform:none;writing-mode:lr-tb;direction:ltr;text-orientation:mixed;dominant-baseline:auto;baseline-shift:baseline;text-anchor:start;white-space:normal;shape-padding:0;clip-rule:nonzero;display:inline;overflow:visible;visibility:visible;opacity:1;isolation:auto;mix-blend-mode:normal;color-interpolation:sRGB;color-interpolation-filters:linearRGB;solid-color:#000000;solid-opacity:1;vector-effect:none;fill:#000000;fill-opacity:0.5408163;fill-rule:nonzero;stroke:none;stroke-width:49.55028915;stroke-linecap:round;stroke-linejoin:miter;stroke-miterlimit:4;stroke-dasharray:none;stroke-dashoffset:0;stroke-opacity:1;filter:url(#filter2628);color-rendering:auto;image-rendering:auto;shape-rendering:auto;text-rendering:auto;enable-background:accumulate"
         d="m 122.78955,-35.06669 c -107.162443,0 -194.27755,87.515654 -194.27755,195.03305 0,107.5174 87.115107,195.03564 194.27755,195.03564 107.16244,0 194.27753,-87.51824 194.27753,-195.03564 0,-107.517396 -87.11509,-195.03305 -194.27753,-195.03305 z m 0,27.964702 c 16.72994,0 32.87449,2.470583 48.09525,7.064685 C 156.30629,30.911604 137.61202,69.287595 121.71984,106.86056 105.92747,69.523537 87.363339,31.38552 72.825154,0.538372 c 15.765632,-4.963638 32.548036,-7.64036 49.964396,-7.64036 z m 84.7757,23.225972 c 19.264,11.460074 36.01311,26.715864 49.23678,44.75179 -0.24581,0.54171 -0.49241,1.093973 -0.74103,1.668116 -24.86685,70.28801 -47.32836,120.19336 -74.60062,179.88721 L 147.48726,164.88079 H 95.952423 L 61.979304,242.4311 C 34.730226,182.78801 12.283866,132.9153 -12.557746,62.721655 0.484605,44.414936 17.119742,28.879092 36.322473,17.14356 l 59.62995,135.70799 h 51.534837 z m 72.94438,90.586716 c 5.57226,16.71745 8.59224,34.62316 8.59224,53.25566 0,69.10431 -41.51378,128.2288 -100.88583,153.69553 37.33881,-66.24862 65.25001,-135.92557 91.94323,-206.0453 0.12083,-0.29113 0.2372,-0.59437 0.35036,-0.90589 z m -316.41789,3.02927 c 26.280654,68.96124 53.816194,137.46634 90.42652,202.67136 -57.849415,-26.11501 -98.041043,-84.44951 -98.041043,-152.44497 0,-17.51183 2.667765,-34.38151 7.614523,-50.22639 z m 157.6281,101.86665 48.65646,108.52102 c -15.07144,4.49607 -31.04331,6.90915 -47.58675,6.90915 -17.23364,0 -33.847495,-2.61867 -49.468821,-7.48274 z"
         id="path2486" />
      <path
         id="path2420"
         transform="scale(0.26458333)"
         d="m 402.85938,-64.636719 c -65.82559,0 -129.25516,10.116747 -188.8418,28.876953 1.79261,3.803574 3.72667,7.871253 5.55078,11.732422 57.87811,-18.036025 119.43292,-27.759765 183.29102,-27.759765 61.26454,0 120.40664,8.95291 176.21874,25.605468 1.8263,-3.867407 3.76439,-7.944954 5.5586,-11.753906 -57.5273,-17.363534 -118.54608,-26.701172 -181.77734,-26.701172 z"
         style="color:#000000;font-style:normal;font-variant:normal;font-weight:normal;font-stretch:normal;font-size:medium;line-height:normal;font-family:sans-serif;font-variant-ligatures:normal;font-variant-position:normal;font-variant-caps:normal;font-variant-numeric:normal;font-variant-alternates:normal;font-feature-settings:normal;text-indent:0;text-align:start;text-decoration:none;text-decoration-line:none;text-decoration-style:solid;text-decoration-color:#000000;letter-spacing:normal;word-spacing:normal;text-transform:none;writing-mode:lr-tb;direction:ltr;text-orientation:mixed;dominant-baseline:auto;baseline-shift:baseline;text-anchor:start;white-space:normal;shape-padding:0;clip-rule:nonzero;display:inline;overflow:visible;visibility:visible;opacity:1;isolation:auto;mix-blend-mode:normal;color-interpolation:sRGB;color-interpolation-filters:linearRGB;solid-color:#000000;solid-opacity:1;vector-effect:none;fill:#858a8d;fill-opacity:1;fill-rule:nonzero;stroke:none;stroke-width:187.05490112;stroke-linecap:round;stroke-linejoin:miter;stroke-miterlimit:4;stroke-dasharray:none;stroke-dashoffset:0;stroke-opacity:1;color-rendering:auto;image-rendering:auto;shape-rendering:auto;text-rendering:auto;enable-background:accumulate"
         inkscape:connector-curvature="0" />
      <path
         id="path2418"
         transform="scale(0.26458333)"
         d="M 723.27148,23.146484 718.0625,35 c 70.77455,42.34297 132.33306,98.5388 180.99414,164.9082 -0.91019,2.00575 -1.8236,4.04995 -2.74414,6.17578 -91.80076,259.48175 -174.75578,443.95811 -275.33203,664.11719 l 3.62695,8.2793 C 727.68368,652.86592 812.57759,464.24727 906.5625,198.5918 c 0.93968,-2.16999 1.8717,-4.25728 2.80078,-6.30469 C 859.38402,124.11983 796.08031,66.46015 723.27148,23.146484 Z"
         style="color:#000000;font-style:normal;font-variant:normal;font-weight:normal;font-stretch:normal;font-size:medium;line-height:normal;font-family:sans-serif;font-variant-ligatures:normal;font-variant-position:normal;font-variant-caps:normal;font-variant-numeric:normal;font-variant-alternates:normal;font-feature-settings:normal;text-indent:0;text-align:start;text-decoration:none;text-decoration-line:none;text-decoration-style:solid;text-decoration-color:#000000;letter-spacing:normal;word-spacing:normal;text-transform:none;writing-mode:lr-tb;direction:ltr;text-orientation:mixed;dominant-baseline:auto;baseline-shift:baseline;text-anchor:start;white-space:normal;shape-padding:0;clip-rule:nonzero;display:inline;overflow:visible;visibility:visible;opacity:1;isolation:auto;mix-blend-mode:normal;color-interpolation:sRGB;color-interpolation-filters:linearRGB;solid-color:#000000;solid-opacity:1;vector-effect:none;fill:url(#linearGradient2430);fill-opacity:1;fill-rule:nonzero;stroke:none;stroke-width:187.05490112;stroke-linecap:round;stroke-linejoin:miter;stroke-miterlimit:4;stroke-dasharray:none;stroke-dashoffset:0;stroke-opacity:1;color-rendering:auto;image-rendering:auto;shape-rendering:auto;text-rendering:auto;enable-background:accumulate"
         inkscape:connector-curvature="0" />
      <path
         id="path2416"
         transform="scale(0.26458333)"
         d="M 76.054688,27 C 3.477439,71.354766 -59.395527,130.07292 -108.68945,199.26367 -14.799892,464.56249 70.036751,653.05776 173.02539,878.48047 l 3.70899,-8.46485 C 76.282303,650.1267 -6.5978863,465.80156 -98.279297,206.74219 -50.314333,139.41682 10.778533,82.220469 81.271484,38.873047 Z"
         style="color:#000000;font-style:normal;font-variant:normal;font-weight:normal;font-stretch:normal;font-size:medium;line-height:normal;font-family:sans-serif;font-variant-ligatures:normal;font-variant-position:normal;font-variant-caps:normal;font-variant-numeric:normal;font-variant-alternates:normal;font-feature-settings:normal;text-indent:0;text-align:start;text-decoration:none;text-decoration-line:none;text-decoration-style:solid;text-decoration-color:#000000;letter-spacing:normal;word-spacing:normal;text-transform:none;writing-mode:lr-tb;direction:ltr;text-orientation:mixed;dominant-baseline:auto;baseline-shift:baseline;text-anchor:start;white-space:normal;shape-padding:0;clip-rule:nonzero;display:inline;overflow:visible;visibility:visible;opacity:1;isolation:auto;mix-blend-mode:normal;color-interpolation:sRGB;color-interpolation-filters:linearRGB;solid-color:#000000;solid-opacity:1;vector-effect:none;fill:url(#linearGradient2454);fill-opacity:1;fill-rule:nonzero;stroke:none;stroke-width:187.05490112;stroke-linecap:round;stroke-linejoin:miter;stroke-miterlimit:4;stroke-dasharray:none;stroke-dashoffset:0;stroke-opacity:1;color-rendering:auto;image-rendering:auto;shape-rendering:auto;text-rendering:auto;enable-background:accumulate"
         inkscape:connector-curvature="0" />
      <path
         id="path2414"
         transform="scale(0.26458333)"
         d="m 998.9668,365.52148 c -0.42772,1.17739 -0.86752,2.32349 -1.32422,3.42383 -1.99655,5.24469 -4.00937,10.48327 -6.00977,15.72657 17.55829,57.5514 27.01759,118.70202 27.01759,182.13085 0,249.80906 -146.5184,464.39557 -358.04102,562.16997 -3.46964,6.2494 -6.95543,12.493 -10.46876,18.7265 224.3983,-96.2522 381.30078,-319.71483 381.30078,-580.89647 0,-70.42207 -11.4141,-138.09718 -32.4746,-201.28125 z"
         style="color:#000000;font-style:normal;font-variant:normal;font-weight:normal;font-stretch:normal;font-size:medium;line-height:normal;font-family:sans-serif;font-variant-ligatures:normal;font-variant-position:normal;font-variant-caps:normal;font-variant-numeric:normal;font-variant-alternates:normal;font-feature-settings:normal;text-indent:0;text-align:start;text-decoration:none;text-decoration-line:none;text-decoration-style:solid;text-decoration-color:#000000;letter-spacing:normal;word-spacing:normal;text-transform:none;writing-mode:lr-tb;direction:ltr;text-orientation:mixed;dominant-baseline:auto;baseline-shift:baseline;text-anchor:start;white-space:normal;shape-padding:0;clip-rule:nonzero;display:inline;overflow:visible;visibility:visible;opacity:1;isolation:auto;mix-blend-mode:normal;color-interpolation:sRGB;color-interpolation-filters:linearRGB;solid-color:#000000;solid-opacity:1;vector-effect:none;fill:#ffffff;fill-opacity:1;fill-rule:nonzero;stroke:none;stroke-width:187.05490112;stroke-linecap:round;stroke-linejoin:miter;stroke-miterlimit:4;stroke-dasharray:none;stroke-dashoffset:0;stroke-opacity:1;color-rendering:auto;image-rendering:auto;shape-rendering:auto;text-rendering:auto;enable-background:accumulate"
         inkscape:connector-curvature="0" />
      <path
         id="path2412"
         transform="scale(0.26458333)"
         d="m -196.94336,376.9707 c -18.69641,59.88616 -28.7793,123.64558 -28.7793,189.83203 0,256.99069 151.905372,477.46757 370.54883,576.16997 -3.59481,-6.4026 -7.1619,-12.8152 -10.71094,-19.2344 -205.584129,-100.0477 -347.04687,-311.48105 -347.04687,-556.93557 0,-59.06091 8.19883,-116.1467 23.50195,-170.1914 -2.50257,-6.54753 -5.01756,-13.09076 -7.51367,-19.64063 z"
         style="color:#000000;font-style:normal;font-variant:normal;font-weight:normal;font-stretch:normal;font-size:medium;line-height:normal;font-family:sans-serif;font-variant-ligatures:normal;font-variant-position:normal;font-variant-caps:normal;font-variant-numeric:normal;font-variant-alternates:normal;font-feature-settings:normal;text-indent:0;text-align:start;text-decoration:none;text-decoration-line:none;text-decoration-style:solid;text-decoration-color:#000000;letter-spacing:normal;word-spacing:normal;text-transform:none;writing-mode:lr-tb;direction:ltr;text-orientation:mixed;dominant-baseline:auto;baseline-shift:baseline;text-anchor:start;white-space:normal;shape-padding:0;clip-rule:nonzero;display:inline;overflow:visible;visibility:visible;opacity:1;isolation:auto;mix-blend-mode:normal;color-interpolation:sRGB;color-interpolation-filters:linearRGB;solid-color:#000000;solid-opacity:1;vector-effect:none;fill:url(#linearGradient2446);fill-opacity:1;fill-rule:nonzero;stroke:none;stroke-width:187.05490112;stroke-linecap:round;stroke-linejoin:miter;stroke-miterlimit:4;stroke-dasharray:none;stroke-dashoffset:0;stroke-opacity:1;color-rendering:auto;image-rendering:auto;shape-rendering:auto;text-rendering:auto;enable-background:accumulate"
         inkscape:connector-curvature="0" />
      <path
         id="path2410"
         transform="scale(0.26458333)"
         d="m 303.25195,539.91211 0.24024,0.54687 h 190.8125 l 0.24023,-0.54687 z"
         style="color:#000000;font-style:normal;font-variant:normal;font-weight:normal;font-stretch:normal;font-size:medium;line-height:normal;font-family:sans-serif;font-variant-ligatures:normal;font-variant-position:normal;font-variant-caps:normal;font-variant-numeric:normal;font-variant-alternates:normal;font-feature-settings:normal;text-indent:0;text-align:start;text-decoration:none;text-decoration-line:none;text-decoration-style:solid;text-decoration-color:#000000;letter-spacing:normal;word-spacing:normal;text-transform:none;writing-mode:lr-tb;direction:ltr;text-orientation:mixed;dominant-baseline:auto;baseline-shift:baseline;text-anchor:start;white-space:normal;shape-padding:0;clip-rule:nonzero;display:inline;overflow:visible;visibility:visible;opacity:1;isolation:auto;mix-blend-mode:normal;color-interpolation:sRGB;color-interpolation-filters:linearRGB;solid-color:#000000;solid-opacity:1;vector-effect:none;fill:#ff0000;fill-opacity:1;fill-rule:nonzero;stroke:none;stroke-width:187.05490112;stroke-linecap:round;stroke-linejoin:miter;stroke-miterlimit:4;stroke-dasharray:none;stroke-dashoffset:0;stroke-opacity:1;color-rendering:auto;image-rendering:auto;shape-rendering:auto;text-rendering:auto;enable-background:accumulate"
         inkscape:connector-curvature="0" />
      <path
         id="path2408"
         transform="scale(0.26458333)"
         d="m 303.49219,585 -0.16602,0.37695 H 494.4707 L 494.30469,585 Z"
         style="color:#000000;font-style:normal;font-variant:normal;font-weight:normal;font-stretch:normal;font-size:medium;line-height:normal;font-family:sans-serif;font-variant-ligatures:normal;font-variant-position:normal;font-variant-caps:normal;font-variant-numeric:normal;font-variant-alternates:normal;font-feature-settings:normal;text-indent:0;text-align:start;text-decoration:none;text-decoration-line:none;text-decoration-style:solid;text-decoration-color:#000000;letter-spacing:normal;word-spacing:normal;text-transform:none;writing-mode:lr-tb;direction:ltr;text-orientation:mixed;dominant-baseline:auto;baseline-shift:baseline;text-anchor:start;white-space:normal;shape-padding:0;clip-rule:nonzero;display:inline;overflow:visible;visibility:visible;opacity:1;isolation:auto;mix-blend-mode:normal;color-interpolation:sRGB;color-interpolation-filters:linearRGB;solid-color:#000000;solid-opacity:1;vector-effect:none;fill:#ff0000;fill-opacity:1;fill-rule:nonzero;stroke:none;stroke-width:187.05490112;stroke-linecap:round;stroke-linejoin:miter;stroke-miterlimit:4;stroke-dasharray:none;stroke-dashoffset:0;stroke-opacity:1;color-rendering:auto;image-rendering:auto;shape-rendering:auto;text-rendering:auto;enable-background:accumulate"
         inkscape:connector-curvature="0" />
      <path
         id="path2307"
         transform="scale(0.26458333)"
         d="m 221.18945,1158.1523 -5.29883,11.8165 c 59.04123,18.3838 121.83375,28.2812 186.96876,28.2812 62.52639,0 122.89253,-9.1203 179.85546,-26.1133 l -5.31054,-11.8418 c -55.3204,16.3336 -113.89249,25.1055 -174.54492,25.1055 -63.2613,0 -124.26459,-9.5348 -181.66993,-27.2481 z"
         style="color:#000000;font-style:normal;font-variant:normal;font-weight:normal;font-stretch:normal;font-size:medium;line-height:normal;font-family:sans-serif;font-variant-ligatures:normal;font-variant-position:normal;font-variant-caps:normal;font-variant-numeric:normal;font-variant-alternates:normal;font-feature-settings:normal;text-indent:0;text-align:start;text-decoration:none;text-decoration-line:none;text-decoration-style:solid;text-decoration-color:#000000;letter-spacing:normal;word-spacing:normal;text-transform:none;writing-mode:lr-tb;direction:ltr;text-orientation:mixed;dominant-baseline:auto;baseline-shift:baseline;text-anchor:start;white-space:normal;shape-padding:0;clip-rule:nonzero;display:inline;overflow:visible;visibility:visible;opacity:1;isolation:auto;mix-blend-mode:normal;color-interpolation:sRGB;color-interpolation-filters:linearRGB;solid-color:#000000;solid-opacity:1;vector-effect:none;fill:#fdffff;fill-opacity:1;fill-rule:nonzero;stroke:none;stroke-width:187.05490112;stroke-linecap:round;stroke-linejoin:miter;stroke-miterlimit:4;stroke-dasharray:none;stroke-dashoffset:0;stroke-opacity:1;color-rendering:auto;image-rendering:auto;shape-rendering:auto;text-rendering:auto;enable-background:accumulate"
         inkscape:connector-curvature="0" />
      <path
         id="path2249"
         transform="scale(0.26458333)"
         d="m 402.85938,-170.33008 c -405.0233964,0 -734.27735,330.76783 -734.27735,737.13281 0,406.36498 329.2539536,737.14257 734.27735,737.14257 405.02342,0 734.27732,-330.77759 734.27732,-737.14257 0,-406.36498 -329.2539,-737.13281 -734.27732,-737.13281 z m 0,105.693361 c 63.23127,0 124.25004,9.337638 181.77734,26.701172 C 529.53683,79.036701 458.88133,224.07982 398.81641,366.08789 339.12868,224.97157 268.96505,80.82788 214.01758,-35.759766 c 59.58664,-18.760207 123.01621,-28.876953 188.8418,-28.876953 z m 320.4121,87.783203 c 72.80883,43.313666 136.11254,100.973346 186.0918,169.140626 -0.92908,2.04741 -1.8611,4.1347 -2.80078,6.30469 C 812.57759,464.24728 727.68368,652.86592 624.60742,878.48047 L 496.20508,585.37695 H 301.42773 L 173.02539,878.48047 C 70.036749,653.05776 -14.799888,464.56249 -108.68945,199.26367 -59.395523,130.07292 3.4774386,71.354767 76.054688,27 L 301.42773,539.91211 H 496.20508 Z M 998.9668,365.52148 c 21.0605,63.18407 32.4746,130.85917 32.4746,201.28125 0,261.18164 -156.90248,484.64427 -381.30078,580.89647 141.12305,-250.38847 246.6142,-513.73442 347.50196,-778.75389 0.4567,-1.10034 0.8965,-2.24644 1.32422,-3.42383 z M -196.94336,376.9707 c 99.328455,260.64089 203.3997916,519.55782 341.76953,766.002 -218.643463,-98.7024 -370.54883,-319.17928 -370.54883,-576.16997 0,-66.18646 10.08289,-129.94587 28.7793,-189.83203 z m 595.75977,385.00782 183.89843,410.15818 c -56.96293,16.993 -117.32906,26.1133 -179.85546,26.1133 -65.13501,0 -127.92753,-9.8973 -186.96876,-28.2812 z"
         style="color:#000000;font-style:normal;font-variant:normal;font-weight:normal;font-stretch:normal;font-size:medium;line-height:normal;font-family:sans-serif;font-variant-ligatures:normal;font-variant-position:normal;font-variant-caps:normal;font-variant-numeric:normal;font-variant-alternates:normal;font-feature-settings:normal;text-indent:0;text-align:start;text-decoration:none;text-decoration-line:none;text-decoration-style:solid;text-decoration-color:#000000;letter-spacing:normal;word-spacing:normal;text-transform:none;writing-mode:lr-tb;direction:ltr;text-orientation:mixed;dominant-baseline:auto;baseline-shift:baseline;text-anchor:start;white-space:normal;shape-padding:0;clip-rule:nonzero;display:inline;overflow:visible;visibility:visible;opacity:1;isolation:auto;mix-blend-mode:normal;color-interpolation:sRGB;color-interpolation-filters:linearRGB;solid-color:#000000;solid-opacity:1;vector-effect:none;fill:url(#radialGradient2689);fill-opacity:1;fill-rule:nonzero;stroke:none;stroke-width:187.05490112;stroke-linecap:round;stroke-linejoin:miter;stroke-miterlimit:4;stroke-dasharray:none;stroke-dashoffset:0;stroke-opacity:1;color-rendering:auto;image-rendering:auto;shape-rendering:auto;text-rendering:auto;enable-background:accumulate"
         inkscape:connector-curvature="0" />
      <path
         id="ellipse2643"
         transform="scale(0.26458333)"
         d="M 402.85742,-321.66602 A 884.88466,888.47185 0 0 0 -482.02734,566.80469 884.88466,888.47185 0 0 0 402.85742,1455.2773 884.88466,888.47185 0 0 0 1287.7422,566.80469 884.88466,888.47185 0 0 0 402.85742,-321.66602 Z m 0,6.5918 A 878.31864,881.87925 0 0 1 1281.1758,566.80469 878.31864,881.87925 0 0 1 402.85742,1448.6855 878.31864,881.87925 0 0 1 -475.46094,566.80469 878.31864,881.87925 0 0 1 402.85742,-315.07422 Z"
         style="opacity:1;fill:#000000;fill-opacity:0.38265309;stroke:none;stroke-width:187.05487061;stroke-linecap:round;stroke-linejoin:miter;stroke-miterlimit:4;stroke-dasharray:none;stroke-opacity:1"
         inkscape:connector-curvature="0" />
      <path
         id="ellipse2654"
         transform="scale(0.26458333)"
         d="M 402.85742,-293.35156 A 856.68405,860.15694 0 0 0 -453.82617,566.80469 856.68405,860.15694 0 0 0 402.85742,1426.9629 856.68405,860.15694 0 0 0 1259.541,566.80469 856.68405,860.15694 0 0 0 402.85742,-293.35156 Z m 0,1.51562 A 855.17492,858.64169 0 0 1 1258.0312,566.80469 855.17492,858.64169 0 0 1 402.85742,1425.4473 855.17492,858.64169 0 0 1 -452.31836,566.80469 855.17492,858.64169 0 0 1 402.85742,-291.83594 Z"
         style="opacity:1;fill:#ffffff;fill-opacity:0.65816327;stroke:none;stroke-width:187.05488586;stroke-linecap:round;stroke-linejoin:miter;stroke-miterlimit:4;stroke-dasharray:none;stroke-opacity:1"
         inkscape:connector-curvature="0" />
      <path
         id="ellipse2665"
         transform="scale(0.26458333)"
         d="M 402.85742,-291.83594 A 855.17492,858.64169 0 0 0 -452.31836,566.80469 855.17492,858.64169 0 0 0 -315.40625,1032.6152 852.95176,856.40959 0 0 1 -450.09375,570.82422 852.95176,856.40959 0 0 1 402.85742,-285.58594 852.95176,856.40959 0 0 1 1255.8086,570.82422 852.95176,856.40959 0 0 1 1107.8789,1052.668 855.17492,858.64169 0 0 0 1258.0312,566.80469 855.17492,858.64169 0 0 0 402.85742,-291.83594 Z"
         style="opacity:1;fill:#000000;fill-opacity:0.31632655;stroke:none;stroke-width:187.05488586;stroke-linecap:round;stroke-linejoin:miter;stroke-miterlimit:4;stroke-dasharray:none;stroke-opacity:1"
         inkscape:connector-curvature="0" />
    </g>
  </g>
</svg>
